<svg xmlns="http://www.w3.org/2000/svg" width="1700.93mm" height="157.06mm" viewBox="0 0 4821.54 445.2">
    <title>Element 3</title>
    <g id="Ebene_2" data-name="Ebene 2">
        <g id="Ebene_1-2" data-name="Ebene 1">
            <g>
                <g>
                    <path d="M3899.05,437.4c0-107.25-10.05-160.87-20.1-214.5-10,53.63-20.1,107.25-20.1,214.5Z" style="fill: #1d1d1b"/>
                    <path d="M3238.14,8.4c0,107.25,10.05,160.88,20.1,214.5,10.05-53.62,20.1-107.25,20.1-214.5Z" style="fill: #1d1d1b"/>
                    <path d="M3278.34,437.4c0-107.25-10.05-160.87-20.1-214.5-10,53.63-20.1,107.25-20.1,214.5Z" style="fill: #1d1d1b"/>
                    <path d="M3858.85,8.4H3714v36h145.31c2,84,10.83,131.24,19.69,178.5,8.85-47.26,17.71-94.53,19.69-178.5H4044V8.4h-185.1Z" style="fill: #1d1d1b"/>
                    <path d="M3000.55,193.2c-76.8-14.4-116.4-30-116.4-81,0-47.4,39.6-78.6,105-78.6,61.2,0,104.4,31.2,111.6,91.8h39C3132,51.6,3084,0,2988.55,0c-85.8,0-143.4,45-143.4,113.4,0,75,55.8,99,135,114.6,91.8,18.6,132,33,132,93.6,0,58.2-46.8,90-109.8,90-80.4,0-129.61-40.8-133.8-113.4h-40.21c4.81,83.4,60.61,147,173.41,147,90,0,151.2-49.2,151.2-125.4C3153,229.8,3084,209.4,3000.55,193.2Z" style="fill: #1d1d1b"/>
                    <path d="M3529.14,193.2c-76.8-14.4-116.4-30-116.4-81,0-47.4,39.6-78.6,105-78.6,61.2,0,104.4,31.2,111.6,91.8h39C3660.54,51.6,3612.54,0,3517.14,0c-85.8,0-143.4,45-143.4,113.4,0,75,55.8,99,135,114.6,91.8,18.6,132,33,132,93.6,0,58.2-46.8,90-109.8,90-80.4,0-129.6-40.8-133.8-113.4h-40.2c4.8,83.4,60.6,147,173.4,147,90,0,151.2-49.2,151.2-125.4C3681.54,229.8,3612.54,209.4,3529.14,193.2Z" style="fill: #1d1d1b"/>
                    <polygon points="4157.94 232.8 4388.35 232.8 4388.35 198 4157.94 198 4157.94 43.8 4409.35 43.8 4409.35 8.4 4117.74 8.4 4117.74 437.4 4415.95 437.4 4415.95 400.2 4157.94 400.2 4157.94 232.8" style="fill: #1d1d1b"/>
                    <path d="M4805.34,128.4c0-35.4-10.2-62.4-30-82.8-22.2-23.4-54-37.2-100.2-37.2h-174.6V43.8c0,94.33,10.05,141.49,20.1,188.65-10.05,47.17-20.1,94.33-20.1,188.66V437.4h40.2V421.11c0-82.95-7.77-129.43-16.48-171.51h155.68l97.2,187.8h44.4l-102-193.2C4774.14,229.2,4805.34,189,4805.34,128.4Zm-137.4,87h-143.7c8.71-42.1,16.5-88.59,16.5-171.6h129c63,0,95.4,30.6,95.4,85.8C4765.14,183.6,4736.34,215.4,4667.94,215.4Z" style="fill: #1d1d1b"/>
                </g>
                <g>
                    <path d="M619.5,124.8c7.2-27.6,16.2-69.6,16.2-69.6h1.2s9,42.6,16.8,69.6l81.6,312.6h40.8L892.5,8.4H852.3l-75,289.2c-7.8,31.8-19.8,84.6-19.8,84.6h-1.2s-12-52.2-19.8-82.8L657.9,8.4H614.7L536.1,300c-8.4,30.6-20.4,82.2-20.4,82.2h-1.2s-11.4-52.8-19.8-84.6L420.3,8.4H378.9l114,429h42.6Z" style="fill: #1d1d1b"/>
                    <path d="M1004.09,437.4c0-107.25-10.05-160.87-20.1-214.5-10,53.63-20.1,107.25-20.1,214.5Z" style="fill: #1d1d1b"/>
                    <path d="M963.89,8.4c0,107.25,10.05,160.88,20.1,214.5,10-53.62,20.1-107.25,20.1-214.5Z" style="fill: #1d1d1b"/>
                    <path d="M1584.59,437.4h40.2c0-107.25-10-160.87-20.1-214.5C1594.64,276.53,1584.59,330.15,1584.59,437.4Z" style="fill: #1d1d1b"/>
                    <path d="M1407.29,319.8c0-90-69-110.4-152.4-126.6-76.8-14.4-116.4-30-116.4-81,0-47.4,39.6-78.6,105-78.6,61.2,0,104.4,31.2,111.6,91.8h39C1386.29,51.6,1338.29,0,1242.89,0c-85.8,0-143.4,45-143.4,113.4,0,75,55.8,99,135,114.6,91.8,18.6,132,33,132,93.6,0,58.2-46.8,90-109.8,90-80.4,0-129.6-40.8-133.8-113.4h-40.2c4.8,83.4,60.6,147,173.4,147C1346.09,445.2,1407.29,396,1407.29,319.8Z" style="fill: #1d1d1b"/>
                    <path d="M1769.69,44.4V8.4h-330v36H1585c2,84,10.83,131.24,19.69,178.5,8.86-47.26,17.71-94.53,19.69-178.5Z" style="fill: #1d1d1b"/>
                    <path d="M185.1,437.4c0-107.25-10-160.87-20.1-214.5C155,276.53,144.9,330.15,144.9,437.4Z" style="fill: #1d1d1b"/>
                    <path d="M144.9,8.4H0v36H145.31c2,84,10.83,131.24,19.69,178.5,8.86-47.26,17.71-94.53,19.69-178.5H330V8.4H144.9Z" style="fill: #1d1d1b"/>
                    <polygon points="1883.69 232.8 2114.09 232.8 2114.09 198 1883.69 198 1883.69 43.8 2135.09 43.8 2135.09 8.4 1843.49 8.4 1843.49 437.4 2141.69 437.4 2141.69 400.2 1883.69 400.2 1883.69 232.8" style="fill: #1d1d1b"/>
                    <path d="M2378.69,8.4H2226.28V43.8h.4c2,84.35,10.83,131.73,19.7,179.1,8.88-47.37,17.76-94.75,19.71-179.1h111.39c102.61,0,142.81,72,142.81,180.6s-44.4,177.6-147,177.6h-107.2c-2-84.34-10.83-131.72-19.71-179.1-8.87,47.38-17.75,94.76-19.7,179.1h-.4v35.4h148.2c126.61,0,187.81-85.8,187.81-213S2505.29,8.4,2378.69,8.4Z" style="fill: #1d1d1b"/>
                </g>
            </g>
        </g>
    </g>
</svg>
