<?xml version="1.0" encoding="utf-8"?>
<!-- Generator: Adobe Illustrator 23.1.1, SVG Export Plug-In . SVG Version: 6.00 Build 0)  -->
<svg version="1.1" id="Ebene_1" xmlns="http://www.w3.org/2000/svg" xmlns:xlink="http://www.w3.org/1999/xlink" x="0px" y="0px"
	 viewBox="0 0 4607.5 445.2" style="enable-background:new 0 0 4607.5 445.2;" xml:space="preserve">
<style type="text/css">
	.st0{fill:#1D1D1B;}
</style>
<title>Element 3</title>
<path class="st0" d="M3685,437.4c0-107.2-10.1-160.9-20.1-214.5c-10,53.6-20.1,107.2-20.1,214.5H3685z"/>
<path class="st0" d="M3024.1,8.4c0,107.2,10.1,160.9,20.1,214.5c10.1-53.6,20.1-107.3,20.1-214.5L3024.1,8.4z"/>
<path class="st0" d="M3064.3,437.4c0-107.2-10.1-160.9-20.1-214.5c-10,53.6-20.1,107.2-20.1,214.5H3064.3z"/>
<path class="st0" d="M3644.8,8.4h-144.9v36h145.3c2,84,10.8,131.2,19.7,178.5c8.9-47.3,17.7-94.5,19.7-178.5h145.3v-36H3644.8
	L3644.8,8.4z"/>
<path class="st0" d="M2786.5,193.2c-76.8-14.4-116.4-30-116.4-81c0-47.4,39.6-78.6,105-78.6c61.2,0,104.4,31.2,111.6,91.8h39
	C2917.9,51.6,2869.9,0,2774.5,0c-85.8,0-143.4,45-143.4,113.4c0,75,55.8,99,135,114.6c91.8,18.6,132,33,132,93.6
	c0,58.2-46.8,90-109.8,90c-80.4,0-129.6-40.8-133.8-113.4h-40.2c4.8,83.4,60.6,147,173.4,147c90,0,151.2-49.2,151.2-125.4
	C2938.9,229.8,2869.9,209.4,2786.5,193.2z"/>
<path class="st0" d="M3315.1,193.2c-76.8-14.4-116.4-30-116.4-81c0-47.4,39.6-78.6,105-78.6c61.2,0,104.4,31.2,111.6,91.8h39
	C3446.5,51.6,3398.5,0,3303.1,0c-85.8,0-143.4,45-143.4,113.4c0,75,55.8,99,135,114.6c91.8,18.6,132,33,132,93.6
	c0,58.2-46.8,90-109.8,90c-80.4,0-129.6-40.8-133.8-113.4h-40.2c4.8,83.4,60.6,147,173.4,147c90,0,151.2-49.2,151.2-125.4
	C3467.5,229.8,3398.5,209.4,3315.1,193.2z"/>
<polygon class="st0" points="3943.9,232.8 4174.3,232.8 4174.3,198 3943.9,198 3943.9,43.8 4195.3,43.8 4195.3,8.4 3903.7,8.4 
	3903.7,437.4 4201.9,437.4 4201.9,400.2 3943.9,400.2 "/>
<path class="st0" d="M4591.3,128.4c0-35.4-10.2-62.4-30-82.8c-22.2-23.4-54-37.2-100.2-37.2h-174.6v35.4c0,94.3,10,141.5,20.1,188.7
	c-10,47.2-20.1,94.3-20.1,188.7v16.3h40.2v-16.3c0-83-7.8-129.4-16.5-171.5h155.7l97.2,187.8h44.4l-102-193.2
	C4560.1,229.2,4591.3,189,4591.3,128.4z M4453.9,215.4h-143.7c8.7-42.1,16.5-88.6,16.5-171.6h129c63,0,95.4,30.6,95.4,85.8
	C4551.1,183.6,4522.3,215.4,4453.9,215.4z"/>
<path class="st0" d="M619.5,124.8c7.2-27.6,16.2-69.6,16.2-69.6h1.2c0,0,9,42.6,16.8,69.6l81.6,312.6h40.8l116.4-429h-40.2
	l-75,289.2c-7.8,31.8-19.8,84.6-19.8,84.6h-1.2c0,0-12-52.2-19.8-82.8l-78.6-291h-43.2L536.1,300c-8.4,30.6-20.4,82.2-20.4,82.2
	h-1.2c0,0-11.4-52.8-19.8-84.6L420.3,8.4h-41.4l114,429h42.6L619.5,124.8z"/>
<path class="st0" d="M1004.1,437.4c0-107.2-10-160.9-20.1-214.5c-10,53.6-20.1,107.2-20.1,214.5H1004.1z"/>
<path class="st0" d="M963.9,8.4c0,107.2,10,160.9,20.1,214.5c10-53.6,20.1-107.3,20.1-214.5L963.9,8.4z"/>
<path class="st0" d="M1584.6,437.4h40.2c0-107.2-10-160.9-20.1-214.5C1594.6,276.5,1584.6,330.2,1584.6,437.4z"/>
<path class="st0" d="M1407.3,319.8c0-90-69-110.4-152.4-126.6c-76.8-14.4-116.4-30-116.4-81c0-47.4,39.6-78.6,105-78.6
	c61.2,0,104.4,31.2,111.6,91.8h39C1386.3,51.6,1338.3,0,1242.9,0c-85.8,0-143.4,45-143.4,113.4c0,75,55.8,99,135,114.6
	c91.8,18.6,132,33,132,93.6c0,58.2-46.8,90-109.8,90c-80.4,0-129.6-40.8-133.8-113.4h-40.2c4.8,83.4,60.6,147,173.4,147
	C1346.1,445.2,1407.3,396,1407.3,319.8z"/>
<path class="st0" d="M1769.7,44.4v-36h-330v36H1585c2,84,10.8,131.2,19.7,178.5c8.9-47.3,17.7-94.5,19.7-178.5L1769.7,44.4z"/>
<path class="st0" d="M185.1,437.4c0-107.2-10-160.9-20.1-214.5c-10,53.6-20.1,107.2-20.1,214.5H185.1z"/>
<path class="st0" d="M144.9,8.4H0v36h145.3c2,84,10.8,131.2,19.7,178.5c8.9-47.3,17.7-94.5,19.7-178.5H330v-36H144.9z"/>
<polygon class="st0" points="1883.7,232.8 2114.1,232.8 2114.1,198 1883.7,198 1883.7,43.8 2135.1,43.8 2135.1,8.4 1843.5,8.4 
	1843.5,437.4 2141.7,437.4 2141.7,400.2 1883.7,400.2 "/>
<path class="st0" d="M2378.7,8.4h-152.4v35.4h0.4c2,84.4,10.8,131.7,19.7,179.1c8.9-47.4,17.8-94.8,19.7-179.1h111.4
	c102.6,0,142.8,72,142.8,180.6s-44.4,177.6-147,177.6h-107.2c-2-84.3-10.8-131.7-19.7-179.1c-8.9,47.4-17.8,94.8-19.7,179.1h-0.4
	v35.4h148.2c126.6,0,187.8-85.8,187.8-213S2505.3,8.4,2378.7,8.4z"/>
</svg>
