<svg xmlns="http://www.w3.org/2000/svg" width="597.2" height="50" viewBox="0 0 597.2 50">
  <defs>
    <style>
      .cls-1 {
        fill: #1d1e1c;
      }
    </style>
  </defs>
  <title>Element 1</title>
  <g id="Ebene_2" data-name="Ebene 2">
    <g id="Ebene_1-2" data-name="Ebene 1">
      <path class="cls-1" d="M413.1,49a108.12,108.12,0,0,0-2.3-24.1A113,113,0,0,0,408.5,49Z"/>
      <path class="cls-1" d="M339,.9A108.12,108.12,0,0,0,341.3,25,113,113,0,0,0,343.6.9Z"/>
      <path class="cls-1" d="M343.5,49a108.12,108.12,0,0,0-2.3-24.1A113,113,0,0,0,338.9,49Z"/>
      <path class="cls-1" d="M538.5,49H543V.9h-4.5Z"/>
      <path class="cls-1" d="M408.6.9H392.4v4h16.3a106.37,106.37,0,0,0,2.2,20,106.37,106.37,0,0,0,2.2-20h16.3V.9Z"/>
      <path class="cls-1" d="M312.4,21.7c-8.6-1.6-13.1-3.4-13.1-9.1,0-5.3,4.4-8.8,11.8-8.8,6.9,0,11.7,3.5,12.5,10.3H328C327.1,5.8,321.7,0,311,0c-9.6,0-16.1,5-16.1,12.7,0,8.4,6.3,11.1,15.1,12.9,10.3,2.1,14.8,3.7,14.8,10.5,0,6.5-5.2,10.1-12.3,10.1-9,0-14.5-4.6-15-12.7H293c.5,9.4,6.8,16.5,19.4,16.5,10.1,0,17-5.5,17-14.1C329.5,25.8,321.7,23.5,312.4,21.7Z"/>
      <path class="cls-1" d="M371.6,21.7c-8.6-1.6-13.1-3.4-13.1-9.1,0-5.3,4.4-8.8,11.8-8.8,6.9,0,11.7,3.5,12.5,10.3h4.4c-.9-8.3-6.3-14.1-17-14.1-9.6,0-16.1,5-16.1,12.7,0,8.4,6.3,11.1,15.1,12.9,10.3,2.1,14.8,3.7,14.8,10.5,0,6.5-5.2,10.1-12.3,10.1-9,0-14.5-4.6-15-12.7h-4.4c.5,9.4,6.8,16.5,19.4,16.5,10.1,0,17-5.5,17-14.1C388.7,25.8,381,23.5,371.6,21.7Z"/>
      <polygon class="cls-1" points="442.2 26.1 468 26.1 468 22.2 442.2 22.2 442.2 4.9 470.4 4.9 470.4 0.9 437.7 0.9 437.7 49 471.1 49 471.1 44.9 442.2 44.9 442.2 26.1"/>
      <path class="cls-1" d="M514.8,14.4c0-4-1.1-7-3.4-9.3C508.9,2.5,505.3.9,500.2.9H480.6v4a83.44,83.44,0,0,0,2.3,21.2,88.37,88.37,0,0,0-2.3,21.2v1.8h4.5V47.3a90.93,90.93,0,0,0-1.8-19.2h17.5l10.9,21.1h5L505.3,27.5C511.3,25.7,514.8,21.2,514.8,14.4Zm-15.4,9.7H483.3a83.38,83.38,0,0,0,1.9-19.2h14.5c7.1,0,10.7,3.4,10.7,9.6S507,24.1,499.4,24.1Z"/>
      <path class="cls-1" d="M69.5,14c.8-3.1,1.8-7.8,1.8-7.8h.1s1,4.8,1.9,7.8l9.2,35.1h4.6L100.1.9H95.6L87.2,33.3c-.9,3.6-2.2,9.5-2.2,9.5h-.1s-1.3-5.9-2.2-9.3L73.8.9H69L60.2,33.6c-.9,3.4-2.3,9.2-2.3,9.2h-.1s-1.3-5.9-2.2-9.5L47.1.9H42.5L55.3,49h4.8Z"/>
      <path class="cls-1" d="M112.6,49a108.12,108.12,0,0,0-2.3-24.1A113,113,0,0,0,108,49Z"/>
      <path class="cls-1" d="M108.1.9A108.12,108.12,0,0,0,110.4,25,113,113,0,0,0,112.7.9Z"/>
      <path class="cls-1" d="M177.7,49h4.5a108.12,108.12,0,0,0-2.3-24.1A116.13,116.13,0,0,0,177.7,49Z"/>
      <path class="cls-1" d="M16.3,49h4.5a108.12,108.12,0,0,0-2.3-24.1A116.13,116.13,0,0,0,16.3,49Z"/>
      <path class="cls-1" d="M157.8,35.9c0-10.1-7.7-12.4-17.1-14.2-8.6-1.6-13.1-3.4-13.1-9.1,0-5.3,4.4-8.8,11.8-8.8,6.9,0,11.7,3.5,12.5,10.3h4.4C155.4,5.8,150,0,139.3,0c-9.6,0-16.1,5-16.1,12.7,0,8.4,6.3,11.1,15.1,12.9,10.4,2,15,3.7,15,10.5,0,6.5-5.2,10.1-12.3,10.1-9,0-14.5-4.6-15-12.7h-4.5c.5,9.4,6.8,16.5,19.4,16.5C151,49.9,157.8,44.4,157.8,35.9Z"/>
      <path class="cls-1" d="M198.5,5V1h-37V5h16.3A106.37,106.37,0,0,0,180,25a106.37,106.37,0,0,0,2.2-20Z"/>
      <path class="cls-1" d="M16.3.9H0v4H16.3a106.37,106.37,0,0,0,2.2,20,106.37,106.37,0,0,0,2.2-20H37V.9Z"/>
      <polygon class="cls-1" points="210.1 26.1 235.9 26.1 235.9 22.2 210.1 22.2 210.1 4.9 238.3 4.9 238.3 0.9 205.6 0.9 205.6 49 239 49 239 44.9 210.1 44.9 210.1 26.1"/>
      <path class="cls-1" d="M265.6.9H248.5v4h0A106.58,106.58,0,0,0,250.7,25a106.58,106.58,0,0,0,2.2-20.1h12.5c11.5,0,16,8.1,16,20.3s-5,19.9-16.5,19.9h-12A106.58,106.58,0,0,0,250.7,25a106.58,106.58,0,0,0-2.2,20.1h0v4h16.6c14.2,0,21.1-9.6,21.1-23.9S279.8.9,265.6.9Z"/>
      <g>
        <path d="M562.9,6.3c-6.6,3-10.5,9.1-10.5,18.6s3.9,15.6,10.5,18.6c-3.8-5-5.8-12.1-5.8-18.6S559.1,11.3,562.9,6.3Z"/>
        <path d="M574.8,0h0c-5,0-9,2.5-11.9,6.3A28.7,28.7,0,0,1,574.8,4h0c11.5,0,17.7,9.3,17.7,20.9s-6.2,20.9-17.7,20.9h0a28.7,28.7,0,0,1-11.9-2.3c2.9,3.8,6.9,6.3,11.9,6.3h0c13.6,0,22.4-10.7,22.4-25C597.2,10.7,588.4,0,574.8,0Z"/>
      </g>
      <rect class="cls-1" x="524.5" y="44.5" width="4.5" height="4.7"/>
    </g>
  </g>
</svg>
